PathFileType	4	(X/Y/Z)	SUBJ24_1_walk_RCNL2025.trc
DataRate	CameraRate	NumFrames	NumMarkers	Units	OrigDataRate	OrigDataStartFrame	OrigNumFrames
100	100	8	25	mm	100	294	335
Frame#	Time	R_Shoulder			L_Shoulder			C7			J_Notch			R_Elbow			L_Elbow			R_Wrist			L_Wrist			R_Asis			L_Asis			Sacral			Thoracic			Sternum			R_Thigh_Lateral			R_Knee_Lateral			R_Shank_Lateral			R_Ankle_Lateral			R_Heel			R_Toe			L_Thigh_Lateral			L_Knee_Lateral			L_Shank_Lateral			L_Ankle_Lateral			L_Heel			L_Toe		
		X1	Y1	Z1	X2	Y2	Z2	X3	Y3	Z3	X4	Y4	Z4	X5	Y5	Z5	X6	Y6	Z6	X7	Y7	Z7	X8	Y8	Z8	X9	Y9	Z9	X10	Y10	Z10	X11	Y11	Z11	X12	Y12	Z12	X13	Y13	Z13	X14	Y14	Z14	X15	Y15	Z15	X16	Y16	Z16	X17	Y17	Z17	X18	Y18	Z18	X19	Y19	Z19	X20	Y20	Z20	X21	Y21	Z21	X22	Y22	Z22	X23	Y23	Z23	X24	Y24	Z24	X25	Y25	Z25
294	2.93000000	810.163818	1306.128418	394.963501	769.941528	1310.394287	52.053947	710.146729	1370.895752	231.003143	843.361267	1281.918335	219.265610	819.010986	1025.394897	494.669586	689.108032	1022.538391	-16.614855	966.709137	840.414215	470.594421	695.815521	787.294403	-1.459206	836.465759	859.654785	384.661835	841.714966	878.779053	60.375950	661.757751	904.603943	230.837006	653.461792	1098.888672	235.422852	923.505737	1067.782593	210.272217	721.166077	556.551941	417.016510	764.428101	416.812408	351.581909	650.566345	324.392609	397.732880	469.372681	174.971832	323.779938	431.334381	200.619141	262.811798	509.853455	50.604214	304.336395	879.857056	570.377747	41.257080	930.460205	449.593292	101.630531	931.693176	292.376495	53.730072	927.081726	67.569733	122.790146	879.578674	41.037758	179.998474	1045.673828	48.440895	152.310577
295	2.94000000	822.145569	1307.988770	394.273132	782.862244	1312.320679	51.484341	722.350891	1372.755127	230.183731	855.552124	1283.657837	218.734177	828.406006	1026.626953	493.181061	706.476318	1023.633118	-18.392893	971.357666	837.899628	469.764694	717.520874	788.651245	-3.805716	848.895813	860.709351	382.981781	852.663086	880.959534	58.764606	673.406311	906.404419	230.152039	665.685364	1100.652100	234.391068	935.252563	1069.256836	209.832092	740.877686	555.536194	416.995026	788.049988	417.358582	352.697052	672.263000	328.217255	398.495544	488.314331	183.165558	323.452850	452.794525	210.895096	261.629303	521.170837	55.374561	305.335480	887.200806	571.402222	40.018257	935.542297	449.501953	100.512291	934.454346	292.115234	53.185394	927.261292	67.604858	122.841522	879.580078	41.071926	180.030548	1045.653320	48.489067	152.222504
296	2.95000000	833.924561	1309.784424	393.756042	795.692200	1314.326050	51.051903	734.465393	1374.690308	229.491348	867.619385	1285.418823	218.358871	837.658997	1027.832764	491.829102	723.871094	1024.908447	-20.239019	975.688721	835.396973	468.968002	739.764282	790.279938	-6.239551	861.018860	862.104309	381.544159	863.385742	882.833496	57.202404	684.849487	908.350769	229.317368	677.755798	1102.483643	233.296753	946.863403	1070.742432	209.546738	760.602539	555.138000	417.025421	811.823975	418.482147	353.751953	694.631165	332.068024	399.035797	508.570526	190.836609	322.743378	474.937439	219.690460	260.109924	535.936829	60.862820	306.654724	893.841919	572.204041	39.025398	940.040283	449.343567	99.559555	936.874023	291.833679	52.737587	927.381104	67.624916	122.906097	879.541504	41.069878	180.074829	1045.592529	48.553555	152.182922
297	2.96000000	845.516418	1311.492920	393.407043	808.422974	1316.388184	50.734226	746.501160	1376.682373	228.922318	879.576172	1287.193970	218.112839	846.755188	1028.992798	490.612946	741.247253	1026.354980	-22.148788	979.749237	832.945251	468.218903	762.445740	792.178528	-8.727839	872.855225	863.855713	380.364746	873.923462	884.401672	55.717026	696.116516	910.418335	228.372208	689.626343	1104.403198	232.158157	958.374512	1072.243652	209.398041	780.248474	555.455383	417.100067	835.611755	420.195618	354.739746	717.471191	335.911774	399.311340	530.016663	197.703384	321.698120	497.507446	226.666260	258.304321	554.397766	66.677353	308.249298	900.090149	572.886230	38.250603	944.211548	449.181671	98.814453	939.128906	291.555359	52.390759	927.470520	67.636749	122.982368	879.477051	41.050133	180.118622	1045.512085	48.608849	152.191971
298	2.97000000	856.947876	1313.107544	393.206390	821.043335	1318.498169	50.503532	758.473389	1378.712280	228.471451	891.440063	1288.975708	217.963577	855.687561	1030.107910	489.522064	758.565002	1027.968384	-24.113586	983.574310	830.586548	467.527283	785.460846	794.350891	-11.233685	884.429871	865.946838	379.439331	884.306702	885.692688	54.337410	707.236511	912.574097	227.370789	701.270996	1106.421631	230.998383	969.808105	1073.761475	209.358292	799.761780	556.472046	417.214691	859.310791	422.466217	355.647797	740.594788	339.725098	399.303558	552.577148	203.463516	320.408173	520.431152	231.617630	256.312012	576.456787	72.347961	310.023468	906.180420	573.534302	37.655216	948.196472	449.047607	98.290382	941.290466	291.297241	52.149303	927.545776	67.647537	123.070496	879.396912	41.027439	180.157303	1045.424316	48.645054	152.242905
299	2.98000000	868.252502	1314.633057	393.120575	833.543457	1320.656616	50.331230	770.398560	1380.760498	228.127625	903.229309	1290.753540	217.877472	864.457458	1031.192505	488.539215	775.787903	1029.747192	-26.123377	987.191101	828.360870	466.897217	808.716156	796.814514	-13.725387	895.772827	868.327820	378.752808	894.558350	886.759399	53.091579	718.236084	914.780090	226.374023	712.687561	1108.533569	229.835922	981.173889	1075.292358	209.392746	819.121277	558.058167	417.362000	882.843384	425.226654	356.456696	763.874268	343.459747	399.034821	576.216614	207.828247	318.997955	543.793213	234.479782	254.264236	601.707092	77.405266	311.853546	912.259705	574.200989	37.205868	952.019897	448.947937	97.973305	943.350220	291.075989	52.013058	927.613464	67.663330	123.171288	879.308716	41.012680	180.192856	1045.336670	48.662243	152.324799
300	2.99000000	879.466614	1316.080200	393.106720	845.920288	1322.866333	50.192223	782.291870	1382.804321	227.871338	914.961182	1292.511719	217.824554	873.071594	1032.265869	487.644867	792.885010	1031.691406	-28.169596	990.622589	826.300629	466.326538	832.144714	799.604980	-16.187142	906.924927	870.923584	378.285248	904.698792	887.670654	52.003788	729.140076	916.995178	225.442230	723.897034	1110.715698	228.678085	992.472900	1076.828247	209.463516	838.329163	560.018188	417.532715	906.144958	428.388000	357.147156	787.272339	347.007874	398.577728	600.901489	210.567245	317.595520	567.737000	235.292847	252.293777	629.590271	81.463745	313.612061	918.381958	574.910583	36.875122	955.641113	448.877136	97.828621	945.265930	290.905884	51.972012	927.674255	67.687500	123.284355	879.219543	41.012474	180.230011	1045.252686	48.664940	152.425369
301	3.00000000	890.623962	1317.459595	393.120422	858.180847	1325.125122	50.066792	794.164856	1384.816162	227.676117	926.652039	1294.228027	217.781174	881.537720	1033.343628	486.820648	809.831421	1033.795410	-30.245548	993.890289	824.425873	465.808624	855.707977	802.769165	-18.620974	917.939819	873.644104	378.012939	914.749878	888.497925	51.093201	739.971802	919.176575	224.631302	734.955994	1112.921875	227.523102	1003.701477	1078.356323	209.533966	857.390991	562.162292	417.719543	929.153809	431.851074	357.708832	810.820374	350.191956	398.043610	626.577209	211.546997	316.301147	592.369324	234.152969	250.513855	659.581299	84.278648	315.179871	924.513611	575.662842	36.636868	959.015930	448.826904	97.810555	947.001343	290.792603	52.004292	927.726135	67.719772	123.406265	879.135437	41.028694	180.270737	1045.173950	48.658211	152.531311
